<svg width="92" height="46" viewBox="0 0 92 46" fill="none" xmlns="http://www.w3.org/2000/svg">
<g clip-path="url(#clip0_1046_5106)">
<path d="M58.9867 28.819C58.9082 28.8143 58.8307 28.8058 58.7522 28.8058C58.0873 28.8048 57.4234 28.8001 56.7595 28.8086C56.5742 28.8115 56.5165 28.7547 56.5174 28.5646C56.524 26.3677 56.5373 24.1717 56.5155 21.9748C56.5013 20.5156 55.8696 19.3561 54.6345 18.5721C52.3023 17.0921 49.2382 18.3272 48.5696 21.0074C48.4807 21.3648 48.4438 21.7431 48.4419 22.112C48.4296 24.2474 48.4353 26.3829 48.4353 28.5183C48.4353 28.7087 48.3372 28.8042 48.1411 28.8048C47.3817 28.8048 46.6223 28.7992 45.8629 28.8086C45.6652 28.8115 45.6104 28.7462 45.6123 28.5523C45.6331 26.0849 45.6293 23.6176 45.6728 21.1502C45.6851 20.4522 45.9244 19.7808 46.2223 19.1462C47.1065 17.2651 48.5421 16.0064 50.5291 15.3926C51.5533 15.0767 52.6021 15.0266 53.6594 15.2139C55.3126 15.5061 56.681 16.3024 57.7563 17.5819C58.5696 18.5504 59.0879 19.6663 59.2553 20.9279C59.3082 21.3289 59.3376 21.7356 59.3395 22.1403C59.348 24.2077 59.3432 26.276 59.3442 28.3433C59.3442 28.4341 59.3546 28.5259 59.3631 28.6734C60.5301 27.966 61.6565 27.2841 62.8103 26.5852C62.746 26.4973 62.6996 26.4264 62.6457 26.362C61.8352 25.3946 61.3189 24.2862 61.1316 23.0416C60.8517 21.1785 61.2451 19.4592 62.3563 17.929C63.4127 16.4736 64.8379 15.5676 66.6007 15.2205C67.0755 15.1268 67.5673 15.0824 68.0515 15.0786C70.2001 15.0635 72.3498 15.0758 74.4985 15.0673C74.7112 15.0673 74.7604 15.1325 74.7557 15.333C74.7425 15.8882 74.751 16.4452 74.751 17.0003V17.2538C74.8105 17.2112 74.8446 17.1942 74.8692 17.1687C76.1175 15.8711 77.2723 14.5027 78.2066 12.9545C78.8176 11.9417 79.2082 10.8399 79.5694 9.72677C79.8522 8.85575 80.0489 7.96488 80.1 7.04469C80.1879 5.45588 79.6697 4.06188 78.6776 2.85514C77.9551 1.97751 77.155 1.16324 76.3861 0.325328C76.3001 0.231701 76.1875 0.163609 76.0873 0.0832227C76.1043 0.054851 76.1204 0.0255336 76.1374 -0.00283813C76.51 0.0576882 76.8864 0.104029 77.2552 0.182524C78.6436 0.480427 79.8059 1.17837 80.7714 2.21016C81.8288 3.34124 82.6099 4.63499 83.0374 6.13018C83.3618 7.2641 83.4507 8.41978 83.3334 9.59153C83.0989 11.9511 82.1825 14.0639 80.9492 16.0508C80.4565 16.8443 79.8985 17.5961 79.3585 18.3593C78.5102 19.5585 77.5115 20.63 76.4703 21.6599C74.9656 23.1485 73.3532 24.5169 71.6906 25.8249C70.5037 26.7593 69.3253 27.7069 68.1073 28.5987C63.3805 32.06 58.3427 34.9908 52.9813 37.358C48.0551 39.5331 43.0635 41.5352 37.8772 43.0181C34.7298 43.9175 31.5465 44.6599 28.315 45.181C26.2675 45.5111 24.2105 45.7636 22.1394 45.8941C20.2499 46.0132 18.3594 46.0397 16.4698 45.9168C14.3902 45.7815 12.3275 45.512 10.3292 44.8982C7.9564 44.1691 5.85973 42.9604 4.16499 41.1201C3.04052 39.8991 2.26503 38.4891 1.97753 36.8369C1.81581 35.9082 1.85553 34.9738 1.93686 34.0394C2.00779 33.2261 2.2707 32.4686 2.58279 31.7224C3.04525 30.6178 3.49069 29.5056 3.94936 28.3991C4.00894 28.2563 3.98908 28.1911 3.84723 28.1183C1.81865 27.077 0.54665 25.4371 0.126749 23.1995C-0.23168 21.2892 0.171198 19.5112 1.3212 17.9281C2.37379 16.4792 3.79048 15.5732 5.54575 15.2243C6.02712 15.1287 6.52457 15.0824 7.0154 15.0786C9.15746 15.0635 11.2995 15.0748 13.4425 15.0673C13.6487 15.0673 13.7083 15.1221 13.7045 15.3283C13.6932 16.1142 13.6941 16.901 13.7045 17.6869C13.7064 17.8742 13.6515 17.9281 13.4633 17.9271C11.2806 17.9205 9.09694 17.9347 6.91421 17.9196C5.14854 17.9073 3.61269 19.0412 3.05093 20.6556C2.25841 22.9319 3.73279 25.4901 6.10183 25.9176C6.41959 25.9752 6.74776 25.9979 7.0712 25.9998C9.1726 26.0074 11.274 26.0055 13.3763 26.0065C13.5926 26.0065 13.7007 26.1177 13.7007 26.3403C13.7007 27.0931 13.696 27.8449 13.7045 28.5977C13.7064 28.7727 13.6601 28.8323 13.4766 28.8304C11.3345 28.8105 9.19246 28.8049 7.05039 28.7803C6.28719 28.7717 5.51832 28.7803 4.78538 28.5022C4.55936 28.4162 4.33049 28.3367 4.0846 28.2478C4.07609 28.3083 4.0638 28.3509 4.0638 28.3944C4.06853 30.1979 4.07609 32.0005 4.07893 33.8039C4.08082 35.1128 4.54328 36.26 5.27621 37.322C6.29949 38.8049 7.65282 39.8868 9.26338 40.6671C11.0848 41.5494 13.0274 41.9731 15.0247 42.1925C16.9048 42.3987 18.7868 42.3873 20.6698 42.2606C22.9641 42.1065 25.2348 41.7707 27.4875 41.313C32.7703 40.2386 37.8819 38.6035 42.8914 36.6288C48.3615 34.4726 53.6443 31.9267 58.7503 29.012C58.8316 28.9656 58.911 28.9164 58.9914 28.8682C58.9895 28.8512 58.9876 28.8342 58.9858 28.8171L58.9867 28.819ZM74.0861 18.0028C74.071 17.9801 74.0559 17.9574 74.0407 17.9356C73.9944 17.9328 73.9471 17.9271 73.9008 17.9271C71.8344 17.9271 69.767 17.9271 67.7006 17.9309C67.5332 17.9309 67.363 17.9565 67.1975 17.9858C65.219 18.3404 63.8241 20.1127 63.8865 22.042C63.9215 23.1324 64.3215 24.0498 65.0724 24.8281C65.1906 24.9501 65.2833 24.969 65.4328 24.8621C66.3388 24.2086 67.2533 23.5655 68.164 22.9177C68.2009 22.8912 68.233 22.8591 68.2822 22.8175C67.9739 22.4997 67.8008 22.128 67.8075 21.6987C67.815 21.2618 67.9796 20.8816 68.3191 20.5903C68.6142 20.3368 68.9546 20.2215 69.3471 20.2309C69.9221 20.2442 70.3174 20.5506 70.6475 21.0386C71.8079 20.0153 72.9475 19.009 74.0871 18.0037L74.0861 18.0028Z" fill="white"/>
<path d="M21.7327 28.8427C17.9546 28.8465 14.8403 25.7842 14.8762 21.9172C14.9122 18.0775 18.0302 15.0758 21.8178 15.1146C25.5383 15.1524 28.6252 18.139 28.6129 22.0013C28.6006 25.8901 25.4494 28.8607 21.7327 28.8427ZM17.7181 21.99C17.6888 24.1623 19.4989 26.0358 21.7847 26.0159C24.027 25.997 25.8608 24.1103 25.7747 21.8273C25.6981 19.7978 24.0668 17.9451 21.7441 17.9442C19.3835 17.9432 17.6793 19.8753 17.7172 21.99H17.7181Z" fill="white"/>
<path d="M30.2831 24.7988C30.2831 23.5523 30.2594 22.3039 30.2925 21.0584C30.3095 20.3983 30.5375 19.7704 30.8136 19.1727C31.5891 17.4921 32.8318 16.2891 34.5511 15.5969C35.7531 15.1127 36.9996 14.9888 38.2763 15.2205C40.1318 15.5562 41.6062 16.5048 42.7014 18.0321C43.3426 18.9268 43.7445 19.9264 43.8769 21.0234C43.9298 21.4651 43.9554 21.9134 43.9573 22.3588C43.9658 24.4195 43.9611 26.4803 43.9611 28.54C43.9611 28.8058 43.9611 28.8058 43.6877 28.8067C42.9217 28.8067 42.1557 28.8067 41.3896 28.8067C41.1371 28.8067 41.1277 28.7973 41.1277 28.5419C41.1277 26.5427 41.1277 24.5425 41.1277 22.5432C41.1277 21.8443 41.1182 21.1483 40.8345 20.4891C40.2444 19.1169 39.2258 18.2714 37.7505 18.0085C35.877 17.6746 34.118 18.7178 33.3983 20.3378C33.1855 20.8173 33.0606 21.3204 33.0597 21.8509C33.054 24.0668 33.0455 26.2836 33.0389 28.4994C33.0383 28.7037 32.938 28.8061 32.7382 28.8067C31.9854 28.8067 31.2335 28.8067 30.4807 28.8067C30.2083 28.8067 30.2083 28.8058 30.2083 28.54C30.2083 27.2936 30.2083 26.0462 30.2083 24.7997C30.2348 24.7997 30.2604 24.7997 30.2868 24.7997L30.2831 24.7988Z" fill="white"/>
<path d="M79.1789 20.7161V21.9994C79.2772 21.9342 79.3387 21.9001 79.3916 21.8566C82.0132 19.6881 84.6347 17.5195 87.2534 15.3482C87.3802 15.2432 87.505 15.1912 87.6733 15.1912C89.0021 15.1987 90.3308 15.1959 91.6596 15.1968C91.7371 15.1968 91.8137 15.2044 91.8913 15.2091L91.9092 15.2602C89.1411 17.5725 86.3739 19.8848 83.5774 22.2198C86.2349 24.5482 88.8668 26.8548 91.5376 29.1945H91.3011C90.0471 29.1945 88.7931 29.1917 87.5391 29.1973C87.3849 29.1973 87.2695 29.1529 87.156 29.0536C85.3175 27.46 83.4772 25.8693 81.6368 24.2767C81.2982 23.9836 81.3701 24.0261 81.0845 24.2673C80.4887 24.7704 79.8948 25.2745 79.2961 25.7738C79.1874 25.8646 79.1448 25.962 79.1439 26.1039C79.1391 26.9711 79.1231 27.8383 79.1164 28.7056C79.1155 28.8455 79.0824 28.9117 78.9235 28.9127C78.131 28.9183 77.3375 28.9306 76.545 28.9505C76.3663 28.9552 76.3114 28.8994 76.3133 28.7197C76.3256 27.5537 76.3247 26.3876 76.3341 25.2225C76.3388 24.7004 76.353 24.1793 76.3757 23.6582C76.3795 23.5693 76.4315 23.4634 76.4958 23.3991C76.894 23.0019 77.312 22.6246 77.7026 22.2207C78.1215 21.7885 78.5187 21.3355 78.9216 20.8882C78.984 20.8182 79.0275 20.7312 79.0796 20.6518C79.1127 20.6726 79.1458 20.6934 79.1789 20.7142V20.7161Z" fill="white"/>
<path d="M70.0318 28.7509C70.1746 28.6346 70.2975 28.5325 70.4224 28.4332C71.404 27.6577 72.3867 26.8812 73.3712 26.1095C73.4345 26.0594 73.5244 26.0187 73.6029 26.0159C73.9272 26.0046 74.2526 26.014 74.5779 26.0074C74.7122 26.0046 74.7529 26.0585 74.7529 26.188C74.7491 27.007 74.7491 27.827 74.7529 28.646C74.7529 28.7689 74.7254 28.8332 74.5845 28.8313C73.0884 28.8124 71.5922 28.7973 70.0961 28.7812C70.0904 28.7812 70.0838 28.7755 70.0309 28.7509H70.0318Z" fill="white"/>
</g>
<defs>
<clipPath id="clip0_1046_5106">
<rect width="91.9083" height="46" fill="white"/>
</clipPath>
</defs>
</svg>
